<svg version="1.1" xmlns="http://www.w3.org/2000/svg" xmlns:xlink="http://www.w3.org/1999/xlink" viewBox="0 0 172 172"><g fill="none" fill-rule="nonzero" stroke="none" stroke-width="1" stroke-linecap="butt" stroke-linejoin="miter" stroke-miterlimit="10" stroke-dasharray="" stroke-dashoffset="0" font-family="none" font-weight="none" font-size="none" text-anchor="none" style="mix-blend-mode: normal"><path d="M0,172v-172h172v172z" fill="none"></path><g><g><rect x="13" y="19" transform="scale(2.6875,2.6875)" width="48" height="42" fill="#82c6ba"></rect><path d="M163.9375,142.4375v21.5h-129v-112.875h24.1875v32.25c0,32.65384 26.47116,59.125 59.125,59.125z" fill="#2a6969"></path><rect x="-6.173" y="50.87298" transform="rotate(-30) scale(2.6875,2.6875)" width="38" height="16" fill="#fccbad"></rect><path d="M118.25,77.9375l-10.75,-8.0625l-8.0625,8.0625l-8.0625,-8.0625l-10.75,8.0625v-26.875h37.625z" fill="#b2e6e2"></path><rect x="53" y="51" transform="scale(2.6875,2.6875)" width="8" height="6" fill="#b2e6e2"></rect><rect x="53" y="53" transform="scale(2.6875,2.6875)" width="8" height="4" fill="#82c6ba"></rect><path d="M113.11688,142.19562l-37.625,21.74188l-21.5,-37.24875l15.99063,-9.21812c10.03649,14.1905 25.81719,23.23614 43.13438,24.725z" fill="#fcb592"></path><g fill="#d84b04"><path d="M163.9375,48.375h-155.875c-1.48427,0 -2.6875,1.20323 -2.6875,2.6875c0,1.48427 1.20323,2.6875 2.6875,2.6875h24.1875v8.0625h-10.75c-1.48427,0 -2.6875,1.20323 -2.6875,2.6875c0,1.48427 1.20323,2.6875 2.6875,2.6875h10.75v10.75h-18.8125c-1.48427,0 -2.6875,1.20323 -2.6875,2.6875c0,1.48427 1.20323,2.6875 2.6875,2.6875h18.8125v5.375h-8.0625c-1.48427,0 -2.6875,1.20323 -2.6875,2.6875c0,1.48427 1.20323,2.6875 2.6875,2.6875h8.0625v5.375h-24.1875c-1.48427,0 -2.6875,1.20323 -2.6875,2.6875c0,1.48427 1.20323,2.6875 2.6875,2.6875h24.1875v10.75h-18.8125c-1.48427,0 -2.6875,1.20323 -2.6875,2.6875c0,1.48427 1.20323,2.6875 2.6875,2.6875h18.8125v8.0625h-8.0625c-1.48427,0 -2.6875,1.20323 -2.6875,2.6875c0,1.48427 1.20323,2.6875 2.6875,2.6875h8.0625v8.0625h-13.4375c-1.48427,0 -2.6875,1.20323 -2.6875,2.6875c0,1.48427 1.20323,2.6875 2.6875,2.6875h24.1875c1.48427,0 2.6875,-1.20323 2.6875,-2.6875c0,-1.48427 -1.20323,-2.6875 -2.6875,-2.6875h-5.375v-8.0625h2.6875c1.48427,0 2.6875,-1.20323 2.6875,-2.6875c0,-1.48427 -1.20323,-2.6875 -2.6875,-2.6875h-2.6875v-8.0625h2.6875c1.48427,0 2.6875,-1.20323 2.6875,-2.6875c0,-1.48427 -1.20323,-2.6875 -2.6875,-2.6875h-2.6875v-10.75h8.0625c1.48427,0 2.6875,-1.20323 2.6875,-2.6875c0,-1.48427 -1.20323,-2.6875 -2.6875,-2.6875h-8.0625v-5.375h13.4375c1.48427,0 2.6875,-1.20323 2.6875,-2.6875c0,-1.48427 -1.20323,-2.6875 -2.6875,-2.6875h-13.4375v-5.375h18.8125c1.48427,0 2.6875,-1.20323 2.6875,-2.6875c0,-1.48427 -1.20323,-2.6875 -2.6875,-2.6875h-18.8125v-24.1875h77.9375v18.8125l-6.45,-4.8375c-1.06996,-0.80222 -2.56697,-0.6957 -3.51256,0.24994l-6.16244,6.16244l-6.16244,-6.16244c-0.94559,-0.94564 -2.4426,-1.05216 -3.51256,-0.24994l-6.45,4.8375v-13.4375c0,-1.48427 -1.20323,-2.6875 -2.6875,-2.6875c-1.48427,0 -2.6875,1.20323 -2.6875,2.6875v18.8125c0,1.01795 0.57513,1.94853 1.48561,2.40377c0.91048,0.45524 2.00003,0.357 2.81439,-0.25377l8.88487,-6.665l6.41506,6.41506c1.04947,1.04915 2.75066,1.04915 3.80013,0l6.41506,-6.41506l8.88487,6.665c0.81436,0.61077 1.9039,0.70901 2.81439,0.25377c0.91048,-0.45524 1.48561,-1.38582 1.48561,-2.40377v-24.1875h40.3125v16.125c0,1.48427 1.20323,2.6875 2.6875,2.6875c1.48427,0 2.6875,-1.20323 2.6875,-2.6875v-18.8125c0,-1.48427 -1.20323,-2.6875 -2.6875,-2.6875z"></path><path d="M163.9375,77.9375c-1.48427,0 -2.6875,1.20323 -2.6875,2.6875v22.22025l-16.48513,-28.552c-0.35595,-0.6177 -0.94274,-1.06867 -1.63124,-1.25364c-0.6885,-0.18498 -1.42229,-0.08881 -2.03988,0.26733l-29.21581,16.86944c-0.83837,0.47666 -1.35706,1.36598 -1.35918,2.33038c-0.00212,0.9644 0.51266,1.85599 1.34892,2.33633c0.83626,0.48034 1.86579,0.47577 2.69776,-0.01196l26.88844,-15.523l18.8125,32.58325l-50.16219,28.9605c-1.28612,0.74213 -1.7271,2.38635 -0.98497,3.67247c0.74213,1.28612 2.38635,1.7271 3.67247,0.98497l48.45831,-27.97956v16.84525h-18.8125c-1.48427,0 -2.6875,1.20323 -2.6875,2.6875v16.125c0,1.48427 1.20323,2.6875 2.6875,2.6875h10.75c1.48427,0 2.6875,-1.20323 2.6875,-2.6875c0,-1.48427 -1.20323,-2.6875 -2.6875,-2.6875h-8.0625v-10.75h16.125v21.5h-75.72569l17.95788,-10.36569c1.28612,-0.74213 1.7271,-2.38635 0.98497,-3.67247c-0.74213,-1.28612 -2.38635,-1.7271 -3.67247,-0.98497l-24.3165,14.0395l-18.8125,-32.58325l47.59025,-27.477c1.27445,-0.74714 1.70691,-2.38286 0.96824,-3.66224c-0.73867,-1.27938 -2.37149,-1.72268 -3.65574,-0.99251l-49.91762,28.81806c-0.61798,0.3564 -1.06889,0.94389 -1.2534,1.633c-0.1845,0.68911 -0.08745,1.42331 0.26977,2.04081l19.17263,33.20675h-33.21481v-5.375c0,-1.48427 -1.20323,-2.6875 -2.6875,-2.6875c-1.48427,0 -2.6875,1.20323 -2.6875,2.6875v5.375h-24.1875c-1.48427,0 -2.6875,1.20323 -2.6875,2.6875c0,1.48427 1.20323,2.6875 2.6875,2.6875h155.875c1.48427,0 2.6875,-1.20323 2.6875,-2.6875v-83.3125c0,-1.48427 -1.20323,-2.6875 -2.6875,-2.6875z"></path><path d="M85.69094,133.22475c-0.74215,-1.28535 -2.38575,-1.72572 -3.67113,-0.98362l-4.65475,2.6875l-2.6875,-4.65475l6.9875,-4.03125c1.27445,-0.74714 1.70691,-2.38286 0.96824,-3.66224c-0.73867,-1.27938 -2.37149,-1.72268 -3.65574,-0.99251l-9.3095,5.375c-1.28535,0.74215 -1.72572,2.38575 -0.98363,3.67113l10.75,18.619c0.74213,1.28612 2.38635,1.7271 3.67247,0.98497c1.28612,-0.74213 1.7271,-2.38635 0.98497,-3.67247l-4.03125,-6.9875l4.65475,-2.6875c1.2792,-0.74476 1.71537,-2.38368 0.97556,-3.66575z"></path><path d="M104.67006,128.4625l2.6875,4.65475c0.74213,1.28612 2.38635,1.7271 3.67247,0.98497c1.28612,-0.74213 1.7271,-2.38635 0.98497,-3.67247l-2.6875,-4.65475c-1.00594,-1.71797 -2.61549,-2.99987 -4.515,-3.59587c0.67244,-3.11024 -0.55316,-6.32438 -3.12573,-8.19724c-2.57257,-1.87287 -6.00779,-2.05186 -8.76108,-0.45651l-4.65206,2.6875c-0.6177,0.35595 -1.06867,0.94274 -1.25364,1.63124c-0.18498,0.6885 -0.08881,1.42229 0.26733,2.03988l5.375,9.3095l5.375,9.3095c0.74213,1.28612 2.38635,1.7271 3.67247,0.98497c1.28612,-0.74213 1.7271,-2.38635 0.98497,-3.67247l-4.03125,-6.9875l2.32469,-1.34375c0.61757,-0.36023 1.35323,-0.45954 2.04421,-0.27595c0.69098,0.18359 1.28033,0.63494 1.63766,1.2542zM95.62663,118.16938c1.28425,-0.73017 2.91707,-0.28687 3.65574,0.99251c0.73867,1.27938 0.30621,2.9151 -0.96824,3.66224l-2.32469,1.34375l-2.6875,-4.65206z"></path><path d="M118.90038,104.74262c1.27445,-0.74714 1.70691,-2.38286 0.96824,-3.66224c-0.73867,-1.27938 -2.37149,-1.72268 -3.65574,-0.99251l-9.3095,5.375c-1.28535,0.74215 -1.72572,2.38575 -0.98363,3.67112l5.375,9.3095l5.375,9.3095c0.74215,1.28535 2.38575,1.72572 3.67113,0.98362l9.3095,-5.375c1.27445,-0.74714 1.70691,-2.38286 0.96824,-3.66224c-0.73867,-1.27938 -2.37149,-1.72268 -3.65574,-0.99251l-6.9875,4.03125l-2.6875,-4.65475l6.9875,-4.03125c1.27445,-0.74714 1.70691,-2.38286 0.96824,-3.66224c-0.73867,-1.27938 -2.37149,-1.72268 -3.65574,-0.99251l-6.9875,4.03125l-2.6875,-4.65475z"></path><path d="M137.51938,93.99262c1.27445,-0.74714 1.70691,-2.38286 0.96824,-3.66224c-0.73867,-1.27938 -2.37149,-1.72268 -3.65574,-0.99251l-9.3095,5.375c-0.6177,0.35595 -1.06867,0.94274 -1.25364,1.63124c-0.18498,0.6885 -0.08881,1.42229 0.26733,2.03988l5.375,9.3095l5.375,9.3095c0.3564,0.61798 0.94389,1.06889 1.633,1.2534c0.68911,0.1845 1.42331,0.08745 2.04081,-0.26977l9.3095,-5.375c1.27445,-0.74714 1.70691,-2.38286 0.96824,-3.66224c-0.73867,-1.27938 -2.37149,-1.72268 -3.65574,-0.99251l-6.9875,4.03125l-2.6875,-4.65475l6.9875,-4.03125c1.27445,-0.74714 1.70691,-2.38286 0.96824,-3.66224c-0.73867,-1.27938 -2.37149,-1.72268 -3.65574,-0.99251l-6.9875,4.03125l-2.6875,-4.65475z"></path><path d="M53.75,102.125c0,1.48427 1.20323,2.6875 2.6875,2.6875h5.375c1.48427,0 2.6875,-1.20323 2.6875,-2.6875c0,-1.48427 -1.20323,-2.6875 -2.6875,-2.6875h-5.375c-1.48427,0 -2.6875,1.20323 -2.6875,2.6875z"></path><path d="M61.8125,61.8125h-16.125c-1.48427,0 -2.6875,1.20323 -2.6875,2.6875c0,1.48427 1.20323,2.6875 2.6875,2.6875h16.125c1.48427,0 2.6875,-1.20323 2.6875,-2.6875c0,-1.48427 -1.20323,-2.6875 -2.6875,-2.6875z"></path><path d="M26.875,37.625c-1.48427,0 -2.6875,1.20323 -2.6875,2.6875c0,1.48427 1.20323,2.6875 2.6875,2.6875h40.3125c1.48427,0 2.6875,-1.20323 2.6875,-2.6875c0,-1.48427 -1.20323,-2.6875 -2.6875,-2.6875z"></path><path d="M80.625,43h16.125c1.48427,0 2.6875,-1.20323 2.6875,-2.6875c0,-1.48427 -1.20323,-2.6875 -2.6875,-2.6875h-16.125c-1.48427,0 -2.6875,1.20323 -2.6875,2.6875c0,1.48427 1.20323,2.6875 2.6875,2.6875z"></path><path d="M112.875,40.3125c0,1.48427 1.20323,2.6875 2.6875,2.6875h48.375c1.48427,0 2.6875,-1.20323 2.6875,-2.6875c0,-1.48427 -1.20323,-2.6875 -2.6875,-2.6875h-48.375c-1.48427,0 -2.6875,1.20323 -2.6875,2.6875z"></path><path d="M96.75,32.25h18.8125c1.48427,0 2.6875,-1.20323 2.6875,-2.6875c0,-1.48427 -1.20323,-2.6875 -2.6875,-2.6875h-18.8125c-1.48427,0 -2.6875,1.20323 -2.6875,2.6875c0,1.48427 1.20323,2.6875 2.6875,2.6875z"></path><path d="M56.4375,32.25h16.125c1.48427,0 2.6875,-1.20323 2.6875,-2.6875c0,-1.48427 -1.20323,-2.6875 -2.6875,-2.6875h-16.125c-1.48427,0 -2.6875,1.20323 -2.6875,2.6875c0,1.48427 1.20323,2.6875 2.6875,2.6875z"></path><path d="M8.0625,32.25h26.875c1.48427,0 2.6875,-1.20323 2.6875,-2.6875c0,-1.48427 -1.20323,-2.6875 -2.6875,-2.6875h-26.875c-1.48427,0 -2.6875,1.20323 -2.6875,2.6875c0,1.48427 1.20323,2.6875 2.6875,2.6875z"></path><path d="M67.1875,94.0625h13.4375c1.48427,0 2.6875,-1.20323 2.6875,-2.6875c0,-1.48427 -1.20323,-2.6875 -2.6875,-2.6875h-13.4375c-1.48427,0 -2.6875,1.20323 -2.6875,2.6875c0,1.48427 1.20323,2.6875 2.6875,2.6875z"></path></g></g></g></g></svg>